<svg width="107" height="51" viewBox="0 0 107 51" fill="none" xmlns="http://www.w3.org/2000/svg">
<path d="M17.7041 18.0293C15.3328 18.0294 13.4941 18.785 12.1484 20.2021C10.8451 21.5748 9.98329 23.5921 9.57129 26.2119H25.4951C25.3113 24.0406 24.6125 22.03 23.377 20.5488C22.0954 19.0127 20.225 18.0293 17.7041 18.0293ZM60.5459 1.63477C60.8141 1.63485 61.0584 1.71865 61.2363 1.89648C61.4144 2.07455 61.499 2.3194 61.499 2.58789V8.80664C61.499 9.07503 61.4143 9.32003 61.2363 9.49805C61.0584 9.67575 60.814 9.75968 60.5459 9.75977H53.8965C53.6166 9.7597 53.3637 9.67877 53.1797 9.50098C52.9947 9.32211 52.9112 9.07523 52.9111 8.80664V2.58789C52.9111 2.31048 53.0086 2.06529 53.1953 1.89062C53.3799 1.71791 53.6289 1.63483 53.8965 1.63477H60.5459ZM47.2178 46.6143C47.2178 46.8856 47.15 47.137 46.9688 47.3184C46.7874 47.4997 46.536 47.5674 46.2646 47.5674H39.6816C39.4224 47.5673 39.1762 47.4971 38.9941 47.3213C38.8104 47.1439 38.7295 46.8948 38.7295 46.6143V46.6113L39.0264 23.9922L38.7295 1.69824L38.7285 1.69434H38.7295C38.7295 1.42311 38.7973 1.17247 38.9785 0.991211C39.1597 0.809979 39.4104 0.741284 39.6816 0.741211H46.2646C46.536 0.74122 46.7874 0.809893 46.9688 0.991211C47.1497 1.17245 47.2177 1.42325 47.2178 1.69434V1.69824L46.9199 23.96L47.2178 46.6113V46.6143ZM61.5645 46.6143C61.5645 46.8856 61.4968 47.137 61.3154 47.3184C61.1341 47.4997 60.8827 47.5674 60.6113 47.5674H53.7979C53.5265 47.5674 53.2751 47.4997 53.0938 47.3184C52.9124 47.137 52.8447 46.8856 52.8447 46.6143V46.6104L53.1094 30.0137L52.8447 13.9375V13.9336C52.8447 13.6622 52.9124 13.4108 53.0938 13.2295C53.2751 13.0482 53.5265 12.9805 53.7979 12.9805H60.6113C60.8827 12.9805 61.1341 13.0482 61.3154 13.2295C61.4968 13.4108 61.5645 13.6622 61.5645 13.9336V13.9375L61.2998 30.0137L61.5645 46.6104V46.6143ZM34.6006 30.9023C34.6006 31.1859 34.5348 31.445 34.3545 31.6318C34.1724 31.8203 33.9188 31.8887 33.6475 31.8887H9.30859C9.46989 35.5737 10.3153 38.2006 11.7461 39.9121C13.2029 41.6545 15.2966 42.4863 18.002 42.4863C20.0299 42.4863 21.6778 42.016 22.9346 41.124C24.1892 40.2334 25.0767 38.906 25.5596 37.1514L25.5625 37.1387H25.5635C25.6418 36.9036 25.7669 36.7056 25.9512 36.5674C26.1366 36.4283 26.3597 36.3662 26.6025 36.3662H32.8545C33.1075 36.3663 33.3574 36.4105 33.543 36.5342C33.6398 36.5988 33.7228 36.6878 33.7715 36.8047C33.8189 36.9185 33.8252 37.0402 33.8027 37.1611L33.8037 37.1621C32.8201 43.334 27.1305 48.3612 17.9033 48.3613C12.3518 48.3613 8.05215 46.5029 5.14258 43.3066C2.23616 40.1138 0.741211 35.6138 0.741211 30.373C0.741246 24.9656 2.31101 20.4161 5.2207 17.2158C8.13313 14.0128 12.3663 12.1865 17.6387 12.1865C22.9419 12.1866 27.1349 13.9539 30.0283 17.1973C32.9176 20.4361 34.484 25.1172 34.6006 30.8975V30.9023Z" fill="white" stroke="white" stroke-width="0.516843"/>
<path d="M104.572 23.8138C104.572 23.8138 100.571 8.88518 86.3897 13.0661C72.5653 17.1417 76.0176 31.4648 76.0176 31.4648" stroke="white" stroke-width="4.1177"/>
<path d="M91.1696 48.2317C91.1696 48.2317 106.098 44.2316 101.917 30.0499C97.8417 16.2255 83.5186 19.6778 83.5186 19.6778" stroke="white" stroke-width="4.1177"/>
<path d="M66.6335 34.361C66.6335 34.361 70.6336 49.2896 84.8154 45.1087C98.6397 41.0331 95.1875 26.71 95.1875 26.71" stroke="white" stroke-width="4.1177"/>
<path d="M80.3919 10.3561C80.3919 10.3561 65.4633 14.3563 69.6443 28.538C73.7199 42.3624 88.043 38.9101 88.043 38.9101" stroke="white" stroke-width="4.1177"/>
</svg>
